<mxfile host="app.diagrams.net" modified="2022-12-20T01:33:02.734Z" agent="5.0 (Windows)" etag="0Gso3qrZUg92kHLDVU2G" version="20.7.4" type="github">
  <diagram id="SyN61FGpTFezP5N0Ok2E" name="Seite-1">
    <mxGraphModel dx="792" dy="1141" grid="1" gridSize="10" guides="1" tooltips="1" connect="1" arrows="1" fold="1" page="1" pageScale="1" pageWidth="827" pageHeight="1169" math="0" shadow="0">
      <root>
        <mxCell id="0" />
        <mxCell id="1" parent="0" />
        <mxCell id="mz1h7Viwc-VAsLhkfUUW-6" style="edgeStyle=orthogonalEdgeStyle;rounded=0;orthogonalLoop=1;jettySize=auto;html=1;entryX=1;entryY=0.5;entryDx=0;entryDy=0;" parent="1" edge="1">
          <mxGeometry relative="1" as="geometry">
            <Array as="points">
              <mxPoint x="520" y="605" />
            </Array>
            <mxPoint x="520" y="530" as="sourcePoint" />
            <mxPoint x="440" y="605" as="targetPoint" />
          </mxGeometry>
        </mxCell>
        <mxCell id="3BU-z0h2mM9pz-ysrV7H-9" value="&lt;div&gt;Dialog&lt;/div&gt;&lt;div&gt;action&lt;/div&gt;" style="edgeLabel;html=1;align=center;verticalAlign=middle;resizable=0;points=[];" vertex="1" connectable="0" parent="mz1h7Viwc-VAsLhkfUUW-6">
          <mxGeometry x="-0.1097" relative="1" as="geometry">
            <mxPoint x="17" y="-14" as="offset" />
          </mxGeometry>
        </mxCell>
        <mxCell id="mz1h7Viwc-VAsLhkfUUW-1" value="DST" style="rounded=0;whiteSpace=wrap;html=1;" parent="1" vertex="1">
          <mxGeometry x="480" y="490" width="80" height="40" as="geometry" />
        </mxCell>
        <mxCell id="mz1h7Viwc-VAsLhkfUUW-9" value="Text" style="edgeStyle=orthogonalEdgeStyle;rounded=0;orthogonalLoop=1;jettySize=auto;html=1;entryX=0;entryY=0.5;entryDx=0;entryDy=0;dashed=1;spacingTop=-16;" parent="1" source="mz1h7Viwc-VAsLhkfUUW-2" target="mz1h7Viwc-VAsLhkfUUW-1" edge="1">
          <mxGeometry relative="1" as="geometry" />
        </mxCell>
        <mxCell id="mz1h7Viwc-VAsLhkfUUW-11" value="Text" style="edgeStyle=orthogonalEdgeStyle;rounded=0;orthogonalLoop=1;jettySize=auto;html=1;entryX=1;entryY=0.5;entryDx=0;entryDy=0;dashed=1;spacingTop=-16;" parent="1" source="mz1h7Viwc-VAsLhkfUUW-2" target="mz1h7Viwc-VAsLhkfUUW-3" edge="1">
          <mxGeometry relative="1" as="geometry" />
        </mxCell>
        <mxCell id="mz1h7Viwc-VAsLhkfUUW-2" value="OD" style="rounded=0;whiteSpace=wrap;html=1;" parent="1" vertex="1">
          <mxGeometry x="350" y="490" width="80" height="40" as="geometry" />
        </mxCell>
        <mxCell id="mz1h7Viwc-VAsLhkfUUW-31" style="edgeStyle=orthogonalEdgeStyle;rounded=0;orthogonalLoop=1;jettySize=auto;html=1;entryX=0.5;entryY=1;entryDx=0;entryDy=0;" parent="1" source="mz1h7Viwc-VAsLhkfUUW-3" target="2MEvKVzLq-VQqd29vEtI-4" edge="1">
          <mxGeometry relative="1" as="geometry">
            <mxPoint x="260" y="420" as="targetPoint" />
          </mxGeometry>
        </mxCell>
        <mxCell id="mz1h7Viwc-VAsLhkfUUW-3" value="Fully-formed action" style="rounded=0;whiteSpace=wrap;html=1;fillColor=#dae8fc;strokeColor=#6c8ebf;" parent="1" vertex="1">
          <mxGeometry x="220" y="490" width="80" height="40" as="geometry" />
        </mxCell>
        <mxCell id="mz1h7Viwc-VAsLhkfUUW-7" style="edgeStyle=orthogonalEdgeStyle;rounded=0;orthogonalLoop=1;jettySize=auto;html=1;exitX=0;exitY=0.5;exitDx=0;exitDy=0;entryX=0.5;entryY=1;entryDx=0;entryDy=0;" parent="1" source="mz1h7Viwc-VAsLhkfUUW-4" target="mz1h7Viwc-VAsLhkfUUW-3" edge="1">
          <mxGeometry relative="1" as="geometry" />
        </mxCell>
        <mxCell id="3BU-z0h2mM9pz-ysrV7H-10" value="&lt;div&gt;Verbal&lt;/div&gt;&lt;div&gt;action&lt;/div&gt;" style="edgeLabel;html=1;align=center;verticalAlign=middle;resizable=0;points=[];" vertex="1" connectable="0" parent="mz1h7Viwc-VAsLhkfUUW-7">
          <mxGeometry x="0.2645" y="-1" relative="1" as="geometry">
            <mxPoint x="-21" y="-3" as="offset" />
          </mxGeometry>
        </mxCell>
        <mxCell id="mz1h7Viwc-VAsLhkfUUW-8" value="Image call" style="edgeStyle=orthogonalEdgeStyle;rounded=0;orthogonalLoop=1;jettySize=auto;html=1;entryX=0.5;entryY=1;entryDx=0;entryDy=0;" parent="1" source="mz1h7Viwc-VAsLhkfUUW-4" target="mz1h7Viwc-VAsLhkfUUW-2" edge="1">
          <mxGeometry relative="1" as="geometry" />
        </mxCell>
        <mxCell id="mz1h7Viwc-VAsLhkfUUW-10" value="t+1" style="edgeStyle=orthogonalEdgeStyle;rounded=0;orthogonalLoop=1;jettySize=auto;html=1;entryX=0;entryY=0.75;entryDx=0;entryDy=0;dashed=1;" parent="1" source="mz1h7Viwc-VAsLhkfUUW-4" target="mz1h7Viwc-VAsLhkfUUW-1" edge="1">
          <mxGeometry relative="1" as="geometry" />
        </mxCell>
        <mxCell id="mz1h7Viwc-VAsLhkfUUW-4" value="Action type" style="rhombus;whiteSpace=wrap;html=1;fillColor=#dae8fc;strokeColor=#6c8ebf;" parent="1" vertex="1">
          <mxGeometry x="340" y="580" width="100" height="50" as="geometry" />
        </mxCell>
        <mxCell id="3oPy4rhliS7U4MGAsdEJ-14" style="edgeStyle=orthogonalEdgeStyle;rounded=0;orthogonalLoop=1;jettySize=auto;html=1;entryX=0.5;entryY=1;entryDx=0;entryDy=0;" parent="1" source="3oPy4rhliS7U4MGAsdEJ-2" target="2MEvKVzLq-VQqd29vEtI-3" edge="1">
          <mxGeometry relative="1" as="geometry">
            <mxPoint x="616" y="430" as="targetPoint" />
          </mxGeometry>
        </mxCell>
        <mxCell id="3oPy4rhliS7U4MGAsdEJ-2" value="VisDial-BERT" style="rounded=0;whiteSpace=wrap;html=1;" parent="1" vertex="1">
          <mxGeometry x="686" y="585" width="130" height="40" as="geometry" />
        </mxCell>
        <mxCell id="2MEvKVzLq-VQqd29vEtI-2" value="Image features" style="edgeStyle=orthogonalEdgeStyle;rounded=0;orthogonalLoop=1;jettySize=auto;html=1;entryX=0.5;entryY=0;entryDx=0;entryDy=0;" parent="1" source="2MEvKVzLq-VQqd29vEtI-1" target="3oPy4rhliS7U4MGAsdEJ-2" edge="1">
          <mxGeometry relative="1" as="geometry" />
        </mxCell>
        <mxCell id="2MEvKVzLq-VQqd29vEtI-1" value="OD" style="rounded=0;whiteSpace=wrap;html=1;" parent="1" vertex="1">
          <mxGeometry x="711" y="490" width="80" height="40" as="geometry" />
        </mxCell>
        <mxCell id="2MEvKVzLq-VQqd29vEtI-3" value="Response" style="text;html=1;strokeColor=none;fillColor=none;align=center;verticalAlign=middle;whiteSpace=wrap;rounded=0;" parent="1" vertex="1">
          <mxGeometry x="618" y="429" width="60" height="30" as="geometry" />
        </mxCell>
        <mxCell id="2MEvKVzLq-VQqd29vEtI-4" value="Response" style="text;html=1;strokeColor=none;fillColor=none;align=center;verticalAlign=middle;whiteSpace=wrap;rounded=0;" parent="1" vertex="1">
          <mxGeometry x="230" y="429" width="60" height="30" as="geometry" />
        </mxCell>
        <mxCell id="2MEvKVzLq-VQqd29vEtI-6" style="edgeStyle=orthogonalEdgeStyle;rounded=0;orthogonalLoop=1;jettySize=auto;html=1;entryX=0.5;entryY=0;entryDx=0;entryDy=0;" parent="1" source="2MEvKVzLq-VQqd29vEtI-5" target="mz1h7Viwc-VAsLhkfUUW-1" edge="1">
          <mxGeometry relative="1" as="geometry" />
        </mxCell>
        <mxCell id="2MEvKVzLq-VQqd29vEtI-5" value="User Utterance" style="text;html=1;strokeColor=none;fillColor=none;align=center;verticalAlign=middle;whiteSpace=wrap;rounded=0;" parent="1" vertex="1">
          <mxGeometry x="490" y="429" width="60" height="30" as="geometry" />
        </mxCell>
        <mxCell id="3BU-z0h2mM9pz-ysrV7H-8" style="edgeStyle=orthogonalEdgeStyle;rounded=0;orthogonalLoop=1;jettySize=auto;html=1;entryX=1;entryY=0.5;entryDx=0;entryDy=0;" edge="1" parent="1" source="2MEvKVzLq-VQqd29vEtI-7" target="3oPy4rhliS7U4MGAsdEJ-2">
          <mxGeometry relative="1" as="geometry" />
        </mxCell>
        <mxCell id="2MEvKVzLq-VQqd29vEtI-7" value="Dialog History + user utterance" style="text;html=1;strokeColor=none;fillColor=none;align=center;verticalAlign=middle;whiteSpace=wrap;rounded=0;" parent="1" vertex="1">
          <mxGeometry x="811" y="429" width="90" height="30" as="geometry" />
        </mxCell>
        <mxCell id="3BU-z0h2mM9pz-ysrV7H-4" style="edgeStyle=orthogonalEdgeStyle;rounded=0;orthogonalLoop=1;jettySize=auto;html=1;entryX=0.5;entryY=0;entryDx=0;entryDy=0;" edge="1" parent="1" source="3BU-z0h2mM9pz-ysrV7H-3" target="mz1h7Viwc-VAsLhkfUUW-2">
          <mxGeometry relative="1" as="geometry" />
        </mxCell>
        <mxCell id="3BU-z0h2mM9pz-ysrV7H-3" value="Image" style="text;html=1;strokeColor=none;fillColor=none;align=center;verticalAlign=middle;whiteSpace=wrap;rounded=0;" vertex="1" parent="1">
          <mxGeometry x="360" y="441" width="60" height="30" as="geometry" />
        </mxCell>
        <mxCell id="3BU-z0h2mM9pz-ysrV7H-7" style="edgeStyle=orthogonalEdgeStyle;rounded=0;orthogonalLoop=1;jettySize=auto;html=1;exitX=0.5;exitY=1;exitDx=0;exitDy=0;entryX=0.5;entryY=0;entryDx=0;entryDy=0;" edge="1" parent="1" source="3BU-z0h2mM9pz-ysrV7H-5" target="2MEvKVzLq-VQqd29vEtI-1">
          <mxGeometry relative="1" as="geometry" />
        </mxCell>
        <mxCell id="3BU-z0h2mM9pz-ysrV7H-5" value="Image" style="text;html=1;strokeColor=none;fillColor=none;align=center;verticalAlign=middle;whiteSpace=wrap;rounded=0;" vertex="1" parent="1">
          <mxGeometry x="721" y="441" width="60" height="30" as="geometry" />
        </mxCell>
      </root>
    </mxGraphModel>
  </diagram>
</mxfile>
